# xmcd
#
# Track frame offsets: 
#        150
#        10102
#        18951
#        31015
#        43303
#        53690
#        65098
#        73877
#        85567
#        96822
#        105530
#        116127
#
# Disc length: 1686 seconds
#
# Revision: 0
# Processed by: cddbd v1.5.2PL0 Copyright (c) Steve Scherf et al.
# Submitted via: ExactAudioCopy v1.3
#
DISCID=9606940c
DTITLE=Waylon Jennings - White Lightnin'
DYEAR=2016
DGENRE=Country
TTITLE0=When Sin Stops
TTITLE1=Jole Blon
TTITLE2=Crying
TTITLE3=Don't Think Twice, It's Alright
TTITLE4=White Lightnin'
TTITLE5=Sally Was A Good Old Girl
TTITLE6=Love Gonna Live Here
TTITLE7=Dream Baby (How Long Must I Dream)
TTITLE8=Big Mamou
TTITLE9=Abilene
TTITLE10=Money (That's What I Want)
TTITLE11=Lorena
EXTD=
EXTT0=
EXTT1=
EXTT2=
EXTT3=
EXTT4=
EXTT5=
EXTT6=
EXTT7=
EXTT8=
EXTT9=
EXTT10=
EXTT11=
PLAYORDER=
